<svg xmlns="http://www.w3.org/2000/svg" width="240" height="120" viewBox="0 0 240 120">
  <defs>
    <linearGradient id="bg-grad" x1="0" y1="0" x2="1" y2="1">
      <stop offset="0%" stop-color="#0f172a"></stop>
      <stop offset="100%" stop-color="#1e1b4b"></stop>
    </linearGradient>
    <linearGradient id="blue-grad" x1="0" y1="0" x2="1" y2="1">
      <stop offset="0%" stop-color="#60a5fa"></stop>
      <stop offset="100%" stop-color="#2563eb"></stop>
    </linearGradient>
    <linearGradient id="orange-grad" x1="0" y1="0" x2="1" y2="1">
      <stop offset="0%" stop-color="#fb923c"></stop>
      <stop offset="100%" stop-color="#ea580c"></stop>
    </linearGradient>
    <linearGradient id="purple-grad" x1="0" y1="0" x2="0" y2="1">
      <stop offset="0%" stop-color="#a78bfa"></stop>
      <stop offset="100%" stop-color="#7c3aed"></stop>
    </linearGradient>
    <linearGradient id="green-grad" x1="0" y1="1" x2="1" y2="0">
      <stop offset="0%" stop-color="#34d399"></stop>
      <stop offset="100%" stop-color="#059669"></stop>
    </linearGradient>
    <linearGradient id="pink-grad" x1="0" y1="0" x2="1" y2="1">
      <stop offset="0%" stop-color="#f472b6"></stop>
      <stop offset="100%" stop-color="#db2777"></stop>
    </linearGradient>
    <linearGradient id="yellow-grad" x1="0" y1="0" x2="1" y2="1">
      <stop offset="0%" stop-color="#fde047"></stop>
      <stop offset="100%" stop-color="#ca8a04"></stop>
    </linearGradient>
  </defs>


  <rect width="240" height="120" fill="url(#bg-grad)"></rect>


  <line x1="80" y1="0" x2="80" y2="120" stroke="rgba(255,255,255,0.04)" stroke-width="1"></line>
  <line x1="160" y1="0" x2="160" y2="120" stroke="rgba(255,255,255,0.04)" stroke-width="1"></line>
  <line x1="0" y1="40" x2="240" y2="40" stroke="rgba(255,255,255,0.04)" stroke-width="1"></line>
  <line x1="0" y1="80" x2="240" y2="80" stroke="rgba(255,255,255,0.04)" stroke-width="1"></line>


  <rect x="26" y="22" width="44" height="44" rx="4" fill="#2563eb" opacity="0.15" transform="rotate(8,48,44)"></rect>
  <circle cx="120" cy="60" r="30" fill="#7c3aed" opacity="0.12"></circle>


  <rect x="22" y="18" width="44" height="44" rx="6" fill="url(#blue-grad)" transform="rotate(-6,44,40)"></rect>
  <rect x="22" y="18" width="44" height="44" rx="6" fill="none" stroke="rgba(255,255,255,0.2)" stroke-width="1" transform="rotate(-6,44,40)"></rect>


  <circle cx="120" cy="38" r="22" fill="url(#orange-grad)"></circle>
  <circle cx="120" cy="38" r="22" fill="none" stroke="rgba(255,255,255,0.2)" stroke-width="1"></circle>

  <ellipse cx="113" cy="31" rx="8" ry="5" fill="rgba(255,255,255,0.2)" transform="rotate(-20,113,31)"></ellipse>


  <polygon points="196,14 228,74 164,74" fill="url(#purple-grad)"></polygon>
  <polygon points="196,14 228,74 164,74" fill="none" stroke="rgba(255,255,255,0.2)" stroke-width="1"></polygon>


  <rect x="18" y="74" width="36" height="36" rx="18" fill="url(#green-grad)" transform="rotate(15,36,92)"></rect>
  <rect x="18" y="74" width="36" height="36" rx="18" fill="none" stroke="rgba(255,255,255,0.15)" stroke-width="1" transform="rotate(15,36,92)"></rect>


  <polygon points="120,72 138,82 138,102 120,112 102,102 102,82" fill="url(#pink-grad)"></polygon>
  <polygon points="120,72 138,82 138,102 120,112 102,102 102,82" fill="none" stroke="rgba(255,255,255,0.2)" stroke-width="1"></polygon>


  <polygon points="196,72 218,92 196,112 174,92" fill="url(#yellow-grad)" transform="rotate(10,196,92)"></polygon>
  <polygon points="196,72 218,92 196,112 174,92" fill="none" stroke="rgba(255,255,255,0.15)" stroke-width="1" transform="rotate(10,196,92)"></polygon>


  <circle cx="160" cy="16" r="5" fill="rgba(248,250,252,0.5)"></circle>
  <circle cx="74" cy="100" r="4" fill="rgba(248,250,252,0.35)"></circle>
  <circle cx="160" cy="92" r="3" fill="rgba(248,250,252,0.25)"></circle>
  <rect x="76" y="52" width="6" height="6" rx="1" fill="rgba(248,250,252,0.3)" transform="rotate(20,79,55)"></rect>
</svg>
